<svg width="1100" height="1650" viewBox="0 0 1100 1650" fill="none" xmlns="http://www.w3.org/2000/svg">
<path d="M51.456 65.5734V92.4835H69.0945V90.2975H54.0189V65.5734H51.456Z" fill="black"/>
<path d="M83.5179 65.0081C75.0755 65.0081 70.8167 71.6037 70.8167 79.0284C70.8167 86.5286 75.1132 93.0488 83.5179 93.0488C92.0357 93.0488 96.1815 86.3024 96.1815 79.0284C96.1815 71.566 91.8849 65.0081 83.5179 65.0081ZM73.3795 79.0284C73.3795 72.772 76.6962 67.194 83.4802 67.194C90.6412 67.194 93.6186 73.1866 93.6186 79.0284C93.6186 84.9833 90.5281 90.8628 83.5179 90.8628C76.4323 90.8628 73.3795 84.9456 73.3795 79.0284Z" fill="black"/>
<path d="M112.003 65.0081C103.561 65.0081 99.3019 71.6037 99.3019 79.0284C99.3019 86.5286 103.598 93.0488 112.003 93.0488C120.521 93.0488 124.667 86.3024 124.667 79.0284C124.667 71.566 120.37 65.0081 112.003 65.0081ZM101.865 79.0284C101.865 72.772 105.181 67.194 111.965 67.194C119.126 67.194 122.104 73.1866 122.104 79.0284C122.104 84.9833 119.013 90.8628 112.003 90.8628C104.918 90.8628 101.865 84.9456 101.865 79.0284Z" fill="black"/>
<path d="M129.219 65.5734V92.4835H131.782V83.2496L136.946 78.4631L148.139 92.4835H151.456L138.868 76.6917L150.891 65.5734H147.423L131.782 80.046V65.5734H129.219Z" fill="black"/>
</svg>
